<?xml version="1.0"?>
<svg xmlns="http://www.w3.org/2000/svg" id="Capa_1" enable-background="new 0 0 512 512" height="24px" viewBox="0 0 512 512" width="24px" class=""><g><g><path d="m407.834 255.162v-255.162h-341.013c-36.228 0-65.702 29.474-65.702 65.702 0 0-.504 373.29-.504 376.093 0 38.778 31.549 70.205 70.327 70.205h310.695c71.543 0 129.748-58.205 129.748-129.748 0-62.572-44.523-114.939-103.551-127.09zm-29.945-2.6c-66.21 1.888-120.151 53.618-125.549 118.907h-130.984v-341.524h256.532v222.617zm-311.068-222.617h24.59v341.523h-20.469c-14.798 0-28.536 4.605-39.877 12.443v-318.209c0-19.716 16.04-35.757 35.756-35.757zm4.121 452.231c-22.266 0-40.381-18.115-40.381-40.381s18.115-40.381 40.381-40.381h182.364c1.317 8.856 3.528 17.423 6.545 25.605h-182.848v29.945h198.614c6.643 9.399 14.502 17.881 23.348 25.212zm310.695-.121c-55.032 0-99.804-44.772-99.804-99.803s44.772-99.803 99.804-99.803c55.031 0 99.803 44.771 99.803 99.803s-44.772 99.803-99.803 99.803z" data-original="#000000" class="active-path" data-old_color="#000000" fill="#FA5001"/><path d="m396.609 387.957v-64.733h-29.945v64.733l-18.509-18.509-21.174 21.174 54.656 54.657 54.656-54.657-21.175-21.174z" data-original="#000000" class="active-path" data-old_color="#000000" fill="#FA5001"/><path d="m201.236 88.171h100.22v29.945h-100.22z" data-original="#000000" class="active-path" data-old_color="#000000" fill="#FA5001"/><path d="m167.382 153.181h167.926v29.945h-167.926z" data-original="#000000" class="active-path" data-old_color="#000000" fill="#FA5001"/></g></g> </svg>
