<svg height="496pt" viewBox="-24 0 496 496" width="496pt" xmlns="http://www.w3.org/2000/svg" xmlns:xlink="http://www.w3.org/1999/xlink"><linearGradient id="a" gradientUnits="userSpaceOnUse" x1="224" x2="224" y1="496" y2="0"><stop offset="0" stop-color="#9f2fff"/><stop offset="1" stop-color="#0bb1d3"/></linearGradient><path d="m152 264h-48v-16h48zm296-32c0 6.167969-2.40625 11.742188-6.238281 16 3.839843 4.257812 6.238281 9.832031 6.238281 16s-2.40625 11.742188-6.238281 16c3.839843 4.257812 6.238281 9.832031 6.238281 16s-2.40625 11.742188-6.238281 16c3.839843 4.257812 6.238281 9.832031 6.238281 16 0 13.230469-10.769531 24-24 24h-24v56c0 22.054688-17.945312 40-40 40h-145.472656c-2.414063 6.777344-7.75 12.113281-14.527344 14.527344v33.472656h-160v-33.472656c-9.289062-3.3125-16-12.113282-16-22.527344 0-6.167969 2.40625-11.742188 6.238281-16-3.832031-4.257812-6.238281-9.832031-6.238281-16 0-10.414062 6.710938-19.214844 16-22.527344v-39.214844c0-5.035156-1.542969-9.851562-4.480469-13.953124l-28.070312-39.3125c-4.875-6.824219-7.449219-14.863282-7.449219-23.25v-117.742188c0-8.824219 7.175781-16 16-16 9.039062 0 17.296875 3.128906 24 8.207031v-41.679687c-9.289062-3.3125-16-12.113282-16-22.527344s6.710938-19.214844 16-22.527344v-33.472656c0-13.230469 10.769531-24 24-24h128c13.230469 0 24 10.769531 24 24v33.472656c9.289062 3.3125 16 12.113282 16 22.527344 0 2.816406-.574219 5.488281-1.472656 8h129.472656c22.054688 0 40 17.945312 40 40v80h24c13.230469 0 24 10.769531 24 24zm-24-8h-4.6875l-16 16h20.6875c4.414062 0 8-3.585938 8-8s-3.585938-8-8-8zm0 32h-4.6875l-16 16h20.6875c4.414062 0 8-3.585938 8-8s-3.585938-8-8-8zm0 32h-4.6875l-16 16h20.6875c4.414062 0 8-3.585938 8-8s-3.585938-8-8-8zm-43.3125 48 16-16h-25.375l-16 16zm-232 112 16-16h-25.375l-16 16zm-108.6875-8c0 4.414062 3.585938 8 8 8h4.6875l16-16h-20.6875c-4.414062 0-8 3.585938-8 8zm51.3125-40-16 16h25.375l16-16zm57.375 16 16-16h-25.375l-16 16zm-73.375 32h25.375l16-16h-25.375zm116.6875-32c4.414062 0 8-3.585938 8-8s-3.585938-8-8-8h-4.6875l-16 16zm22.527344 16h30.160156l-16-16h-14.160156c-1.0625 2.992188-2.6875 5.6875-4.765625 8 2.078125 2.3125 3.703125 5.007812 4.765625 8zm52.785156 0h25.375l-16-16h-25.375zm48 0h25.375l-16-16h-25.375zm36.6875-32v-48h-24c-13.230469 0-24-10.769531-24-24 0-6.167969 2.40625-11.742188 6.238281-16-3.839843-4.257812-6.238281-9.832031-6.238281-16s2.40625-11.742188 6.238281-16c-3.839843-4.257812-6.238281-9.832031-6.238281-16s2.40625-11.742188 6.238281-16c-3.839843-4.257812-6.238281-9.832031-6.238281-16 0-13.230469 10.769531-24 24-24h24v-72h-97.472656c.898437 2.511719 1.472656 5.183594 1.472656 8 0 6.167969-2.40625 11.742188-6.238281 16 3.839843 4.257812 6.238281 9.832031 6.238281 16s-2.40625 11.742188-6.238281 16c3.839843 4.257812 6.238281 9.832031 6.238281 16s-2.40625 11.742188-6.238281 16c3.839843 4.257812 6.238281 9.832031 6.238281 16 0 10.414062-6.710938 19.214844-16 22.527344v23.214844c0 8.386718-2.574219 16.425781-7.449219 23.25l-28.085937 39.3125c-2.921875 4.101562-4.464844 8.917968-4.464844 13.953124v23.214844c6.777344 2.414063 12.113281 7.75 14.527344 14.527344zm-260.6875-328-16 16h33.375l16-16zm124.6875 8c0-4.414062-3.585938-8-8-8h-4.6875l-16 16h20.6875c4.414062 0 8-3.585938 8-8zm108.6875 40 16-16h-25.375l-16 16zm-32-16h-25.375l-16 16h25.375zm-60.6875 64h-48c-4.414062 0-8 3.585938-8 8s3.585938 8 8 8h48c4.414062 0 8-3.585938 8-8s-3.585938-8-8-8zm-48 48h48c4.414062 0 8-3.585938 8-8s-3.585938-8-8-8h-48c-4.414062 0-8 3.585938-8 8s3.585938 8 8 8zm48-80h-48c-4.414062 0-8 3.585938-8 8s3.585938 8 8 8h48c4.414062 0 8-3.585938 8-8s-3.585938-8-8-8zm12.6875-32h-28.6875v16h12.6875zm-64-32h-33.375l-16 16h33.375zm-124.6875 104v40h105.472656c-.898437-2.511719-1.472656-5.183594-1.472656-8 0-6.167969 2.40625-11.742188 6.238281-16-3.839843-4.257812-6.238281-9.832031-6.238281-16s2.40625-11.742188 6.238281-16c-3.839843-4.257812-6.238281-9.832031-6.238281-16 0-13.230469 10.769531-24 24-24h16v-16h-144zm0 96c0 4.414062 3.585938 8 8 8h128c4.414062 0 8-3.585938 8-8v-8h-16c-13.230469 0-24-10.769531-24-24 0-2.816406.574219-5.488281 1.472656-8h-105.472656zm176-24c4.414062 0 8-3.585938 8-8s-3.585938-8-8-8h-48c-4.414062 0-8 3.585938-8 8s3.585938 8 8 8zm136-59.3125 16-16v-25.375l-16 16zm12.6875 115.3125 16-16h-25.375l-16 16zm-48 32 16-16h-20.6875c-4.414062 0-8 3.585938-8 8s3.585938 8 8 8zm-4.6875-96h4.6875l16-16h-20.6875c-4.414062 0-8 3.585938-8 8s3.585938 8 8 8zm4.6875 64 16-16h-20.6875c-4.414062 0-8 3.585938-8 8s3.585938 8 8 8zm0-32 16-16h-20.6875c-4.414062 0-8 3.585938-8 8s3.585938 8 8 8zm48 0 16-16h-25.375l-16 16zm0-32 16-16h-25.375l-16 16zm3.3125-32v-12.6875l-12.6875 12.6875zm-20.992188-103.695312-15.695312 15.695312h4.6875c8.824219 0 16 7.175781 16 16v4.6875l15.695312-15.695312c-1.375-10.808594-9.878906-19.3125-20.6875-20.6875zm-307.007812-80.304688v32h144v-32c0-4.414062-3.585938-8-8-8h-128c-4.414062 0-8 3.585938-8 8zm-16 56c0 4.414062 3.585938 8 8 8h4.6875l16-16h-20.6875c-4.414062 0-8 3.585938-8 8zm8.542969 243.007812c4.882812 6.824219 7.457031 14.863282 7.457031 23.25v37.742188h128v-21.742188c0-8.386718 2.574219-16.425781 7.449219-23.25l28.085937-39.3125c2.921875-4.101562 4.464844-8.917968 4.464844-13.953124v-21.742188h-8v8c0 13.230469-10.769531 24-24 24h-128c-13.230469 0-24-10.769531-24-24v-96c0-13.230469-10.769531-24-24-24v117.742188c0 5.035156 1.542969 9.851562 4.480469 13.953124zm-8.542969 84.992188c0 4.414062 3.585938 8 8 8h4.6875l16-16h-20.6875c-4.414062 0-8 3.585938-8 8zm144 72v-16h-128v16zm16-40c0-4.414062-3.585938-8-8-8h-4.6875l-16 16h20.6875c4.414062 0 8-3.585938 8-8zm183.695312-28.992188-15.695312-15.695312v4.6875c0 8.824219-7.175781 16-16 16h-4.6875l15.695312 15.695312c10.808594-1.375 19.3125-9.878906 20.6875-20.6875zm.304688-59.007812h-16v20.6875l16 16zm48-24c0-4.414062-3.585938-8-8-8h-4.6875l-16 16h20.6875c4.414062 0 8-3.585938 8-8zm0 0" fill="url(#a)"/></svg>