<svg id="Capa_1" enable-background="new 0 0 512 512" height="512" viewBox="0 0 512 512" width="512" xmlns="http://www.w3.org/2000/svg"><g><path d="m497 76.706c-6.229 0-282.782 0-292.954 0l-72.314-72.313c-5.852-5.854-15.357-5.858-21.213 0l-72.312 72.313h-23.207c-8.284 0-15 6.716-15 15v285.051c0 8.284 6.716 15 15 15h181.05v90.242h-30c-8.284 0-15 6.716-15 15s6.716 15 15 15h179.9c8.284 0 15-6.716 15-15s-6.716-15-15-15h-30v-90.242h181.05c8.284 0 15-6.716 15-15v-285.051c0-8.284-6.716-15-15-15zm-216.837 30-23.059 23.059-23.059-23.059zm-159.037-70.494 40.494 40.494h-80.988zm164.824 445.787h-59.9v-90.242h59.9zm196.05-120.242h-452v-255.051h161.62l54.878 54.878c5.857 5.857 15.355 5.857 21.213 0l49.056-49.056 79.935 79.935h-14.636c-8.284 0-15 6.716-15 15s6.716 15 15 15h50.85c8.284 0 15-6.716 15-15v-46.15c0-8.284-6.716-15-15-15s-15 6.716-15 15v9.938l-64.545-64.545h128.629z"/><path d="m228.457 234.186c-12.481-9.727-28.982-11.68-32.121-17.346-.737-1.33.178-4.175 2.295-5.599 3.261-2.193 10.771-1.285 13.209.963 6.09 5.616 15.579 5.231 21.196-.856 5.616-6.09 5.233-15.579-.856-21.196-3.957-3.649-8.896-6.333-14.257-8.016-.16-8.146-6.801-14.703-14.985-14.703-8.284 0-15 6.716-15 15v.698c-19.186 7.928-27.432 30.94-17.845 48.246 10.095 18.225 30.902 19.443 39.925 26.474 3.594 2.801 3.782 5.168 3.61 6.705-.343 3.076-2.806 6.271-5.989 7.768-4.837 2.276-15.067.732-21.046-3.18-6.931-4.536-16.229-2.593-20.764 4.342-4.535 6.933-2.592 16.229 4.342 20.764 4.909 3.212 11.096 5.841 17.767 7.438v.193c0 8.284 6.716 15 15 15s15-6.716 15-15v-1.365c13.687-5.268 23.875-18.012 25.506-32.633 1.435-12.875-4.027-25.156-14.987-33.697z"/><path d="m333.407 234.186c-12.538-9.771-28.977-11.668-32.121-17.345-.737-1.331.178-4.176 2.295-5.6 3.261-2.193 10.772-1.285 13.209.963 6.09 5.616 15.579 5.231 21.196-.856 5.616-6.09 5.233-15.579-.856-21.196-3.957-3.649-8.896-6.333-14.257-8.016-.16-8.146-6.801-14.703-14.985-14.703-8.284 0-15 6.716-15 15v.698c-19.156 7.914-27.444 30.915-17.845 48.246 6.771 12.225 18.427 16.827 27.793 20.526 6.174 2.438 16.47 6.107 15.742 12.651-.344 3.076-2.807 6.271-5.989 7.768-4.837 2.276-15.066.732-21.046-3.18-6.932-4.536-16.229-2.593-20.764 4.342-4.535 6.933-2.592 16.229 4.342 20.764 4.909 3.212 11.096 5.841 17.767 7.438v.193c0 8.284 6.716 15 15 15s15-6.716 15-15v-1.365c.835-.322 1.662-.665 2.473-1.046 25.651-12.068 32.541-46.193 8.046-65.282z"/></g></svg>