<svg height="512pt" viewBox="0 0 512 512" width="512pt" xmlns="http://www.w3.org/2000/svg" xmlns:xlink="http://www.w3.org/1999/xlink"><linearGradient id="a" gradientUnits="userSpaceOnUse" x1="0" x2="512" y1="256" y2="256"><stop offset="0" stop-color="#00f38d"/><stop offset="1" stop-color="#009eff"/></linearGradient><path d="m512 256c0 141.386719-114.613281 256-256 256s-256-114.613281-256-256 114.613281-256 256-256 256 114.613281 256 256zm0 0" fill="url(#a)"/><path d="m417.8125 275.792969-.425781-.425781-85.496094-72.796876-.078125-21.8125-50.9375.175782-33.234375 33.234375c-4.535156 4.535156-11.980469 4.605469-16.597656.167969-2.203125-2.121094-3.433594-5.054688-3.464844-8.257813-.03125-3.390625 1.304687-6.691406 3.667969-9.054687l26.765625-28.550782c21.199219-22.625 51.140625-35.601562 82.144531-35.601562h87.726562v-30h-87.726562c-31.234375 0-61.613281 10.40625-86.25 29.085937-24.890625-19.273437-55.382812-29.757812-87.179688-29.757812h-82.617187v30h82.617187c23.449219 0 45.992188 7.222656 64.882813 20.574219l-21.765625 23.230468c-7.90625 8.007813-12.371094 19.058594-12.265625 30.359375.109375 11.324219 4.605469 21.832031 12.65625 29.582031 16.3125 15.699219 42.609375 15.445313 58.617187-.566406l24.492188-24.488281 2.035156-.007813 101.535156 86.457032c3.453126 3.804687 3.347657 9.921875-.316406 13.585937-3.773437 3.773438-10.148437 3.773438-13.917968.003907l-2.753907-2.757813-21.21875 21.210937 2.757813 2.757813c1.289062 1.289063 2.640625 2.46875 4.054687 3.542969l-.257812.253906c3.773437 3.773438 3.773437 10.148438 0 13.921875-3.773438 3.773437-10.148438 3.769531-13.917969 0l-4.554688-4.523437-21.21875 21.210937 3.070313 3.070313h.003906c2.042969 2.046874 3.277344 4.972656 3.382813 8.03125.058594 1.621093-.183594 4.679687-2.421875 6.917968-2.113281 2.113282-4.660157 2.480469-6.417969 2.417969-2.757812-.097656-5.519531-1.332031-7.574219-3.386719l-2.890625-2.527344-20.335937 22.023438c1.945312 1.945312 3.039062 4.492188 3.066406 7.164062.03125 2.558594-.9375 4.949219-2.722656 6.734376-1.800781 1.804687-4.242188 2.792968-6.871094 2.792968-.019531 0-.042969 0-.0625 0-2.71875-.015625-5.269531-1.078125-7.222656-3.03125l-1.183594-1.175781c1.589844-4.382813 2.421875-9.0625 2.421875-13.875 0-10.84375-4.203125-21.015625-11.835938-28.644531-5-5.003906-10.96875-8.445313-17.28125-10.332032.15625-1.453124.246094-2.917968.246094-4.402343 0-10.660157-4.132812-20.667969-11.640625-28.171875-6.570312-6.574219-14.890625-10.355469-23.472656-11.371094-.945313-8.539062-4.753906-16.855469-11.441406-23.542969-6.433594-6.433593-14.703125-10.378906-23.648438-11.378906-1-8.945313-4.945312-17.214844-11.375-23.648437-7.507812-7.503907-17.511719-11.640626-28.175781-11.640626-10.613281 0-20.574219 4.097657-28.066406 11.535157l-18.757813 18.113281-.1875.183594c-7.507812 7.503906-11.644531 17.511718-11.644531 28.171875 0 10.664062 4.136719 20.667969 11.640625 28.171875 5.472656 5.472656 12.273437 9.140625 19.6875 10.734375-.007813 10.210937 3.875 20.425781 11.648437 28.199219 7.199219 7.195312 16.769532 10.886718 26.519532 11.097656 1.320312 7.859375 4.984375 15.382812 11.023437 21.417968 7.472657 7.476563 17.4375 11.582032 28.082031 11.582032h.234376c.3125-.003906.625-.019532.9375-.027344 1.613281 7.394531 5.292968 14.445312 11.046874 20.199219 7.898438 7.898437 18.273438 11.847656 28.648438 11.847656 9.664062 0 19.328125-3.429687 26.992188-10.285156 7.328124 6.582031 16.703124 10.214843 26.636718 10.273437h.234375c10.644531 0 20.609375-4.105468 28.082031-11.582031 5.855469-5.855469 9.628907-13.222656 10.964844-21.234375 9.84375-.324219 18.957032-4.238281 25.90625-11.191406 6.132813-6.132813 9.980469-14.371094 10.964844-23.214844 9.34375-.800781 18.007812-4.808594 24.691406-11.492188 7.507813-7.503906 11.640625-17.511718 11.640625-28.171874 0-.003907 0-.007813 0-.011719 7.222657-1.5625 14.09375-5.144531 19.695313-10.746094 15.539062-15.535156 15.539062-40.8125.003906-56.347656zm-302.496094 23.894531 18.726563-18.078125.191406-.183594c1.835937-1.839843 4.308594-2.851562 6.957031-2.851562 2.648438 0 5.121094 1.011719 6.960938 2.851562 1.839844 1.839844 2.855468 4.308594 2.855468 6.960938 0 2.15625-.683593 4.191406-1.929687 5.871093-.328125.304688-.65625.605469-.976563.921876l-13.785156 13.519531-4.816406 4.652343-.191406.183594c-1.835938 1.839844-4.308594 2.855469-6.957032 2.855469-2.648437 0-5.121093-1.015625-6.960937-2.855469s-2.855469-4.3125-2.855469-6.960937c0-2.613281.988282-5.054688 2.78125-6.886719zm31.371094 38.898438 8.558594-8.394532 13.929687-13.449218.1875-.183594c.339844-.335938.660157-.683594.984375-1.03125 1.675782-1.246094 3.710938-1.929688 5.871094-1.929688 2.648438 0 5.121094 1.015625 6.960938 2.855469 3.773437 3.777344 3.800781 9.238281.070312 13.015625l-22.890625 22.4375c-4.085937 3.757812-10.179687 4.019531-13.636719.5625-3.757812-3.761719-3.769531-10.105469-.035156-13.882812zm37.578125 46.398437c-3.769531-3.769531-3.679687-10.238281.144531-14.0625l19.761719-19.554687c1.886719-1.886719 4.425781-2.832032 6.960937-2.832032 2.539063 0 5.074219.945313 6.960938 2.832032 1.839844 1.839843 2.851562 4.308593 2.851562 6.957031 0 2.648437-1.011718 5.121093-2.796874 6.90625l-19.757813 19.554687c-3.882813 3.878906-10.351563 3.972656-14.125.199219zm40.304687 31.753906c-4.136718-4.132812-4.257812-10.996093-.269531-14.988281l8.058594-8.054688c1.835937-1.839843 4.230469-2.75 6.683594-2.75 2.71875 0 5.515625 1.117188 7.726562 3.324219v.003907c1.964844 1.964843 3.046875 4.605468 3.046875 7.433593s-1.082031 5.46875-3.046875 7.433594l-7.402343 7.671875c-4.042969 3.953125-10.792969 3.933594-14.796876-.074219zm0 0" fill="#fff"/></svg>